{"title":"Poltergeist.2015.SCREENER.1080p.x264-POLTERGEIST [junoliv69]","uid":12131827,"size":5133962927,"categoryP":"video","categoryS":"hd___movies","magnet":"?xt=urn:btih:05e866f586d3a08f3793814cc2a3835b2d1b0443&amp;dn=Poltergeist.2015.SCREENER.1080p.x264-POLTERGEIST+%5Bjunoliv69%5D&amp;tr=udp%3A%2F%2Ftracker.openbittorrent.com%3A80&amp;tr=udp%3A%2F%2Fopen.demonii.com%3A1337&amp;tr=udp%3A%2F%2Ftracker.coppersurfer.tk%3A6969&amp;tr=udp%3A%2F%2Fexodus.desync.com%3A6969","seeders":0,"leechers":1,"uploader":"junoliv69","files":4,"time":1437062316,"description":"Video\nID                                       : 2\nFormat                                   : AVC\nFormat/Info                              : Advanced Video Codec\nFormat profile                           : &lt;a class=&quot;__cf_email__&quot; href=&quot;/cdn-cgi/l/email-protection&quot; data-cfemail=&quot;de96b7b9b69e92eaf0ef&quot;&gt;[email&amp;#160;protected]&lt;/a&gt;&lt;script data-cfhash='f9e31' type=&quot;text/javascript&quot;&gt;\n/* &lt;![CDATA[ */!function(){try{var t=&quot;currentScript&quot;in document?document.currentScript:function(){for(var t=document.getElementsByTagName(&quot;script&quot;),e=t.length;e--;)if(t[e].getAttribute(&quot;data-cfhash&quot;))return t[e]}();if(t&amp;&amp;t.previousSibling){var e,r,n,i,c=t.previousSibling,a=c.getAttribute(&quot;data-cfemail&quot;);if(a){for(e=&quot;&quot;,r=parseInt(a.substr(0,2),16),n=2;a.length-n;n+=2)i=parseInt(a.substr(n,2),16)^r,e+=String.fromCharCode(i);e=document.createTextNode(e),c.parentNode.replaceChild(e,c)}t.parentNode.removeChild(t);}}catch(u){}}()/* ]]&gt; */&lt;/script&gt;\nFormat settings, CABAC                   : Yes\nFormat settings, ReFrames                : 4 frames\nCodec ID                                 : V_MPEG4/ISO/AVC\nDuration                                 : 1h 33mn\nBit rate                                 : 6 383 Kbps\nWidth                                    : 1 920 pixels\nHeight                                   : 800 pixels\nDisplay aspect ratio                     : 2.40:1\nFrame rate mode                          : Constant\nFrame rate                               : 23.976 fps\nColor space                              : YUV\nChroma subsampling                       : 4:2:0\nBit depth                                : 8 bits\nScan type                                : Progressive\nBits/(Pixel*Frame)                       : 0.173\nStream size                              : 4.18 GiB (89%)\nWriting library                          : x264 core 146 r2538 121396c\nEncoding settings                        : cabac=1 / ref=4 / deblock=1:-2:-2 / analyse=0x3:0x133 / me=umh / subme=10 / psy=1 / psy_rd=1.00:0.00 / mixed_ref=1 / me_range=32 / chroma_me=1 / trellis=2 / 8x8dct=1 / cqm=0 / deadzone=21,11 / fast_pskip=1 / chroma_qp_offset=-2 / threads=18 / lookahead_threads=2 / sliced_threads=0 / nr=0 / decimate=1 / interlaced=0 / bluray_compat=0 / constrained_intra=0 / bframes=5 / b_pyramid=2 / b_adapt=2 / b_bias=0 / direct=3 / weightb=1 / open_gop=0 / weightp=2 / keyint=250 / keyint_min=23 / scenecut=40 / intra_refresh=0 / rc_lookahead=60 / rc=crf / mbtree=1 / crf=17.0 / qcomp=0.60 / qpmin=0 / qpmax=69 / qpstep=4 / ip_ratio=1.40 / aq=1:1.00\nLanguage                                 : English\nDefault                                  : Yes\nForced                                   : No\nColor range                              : Limited\nMatrix coefficients                      : BT.709\n\nAudio\nID                                       : 1\nFormat                                   : AC-3\nFormat/Info                              : Audio Coding 3\nMode extension                           : CM (complete main)\nFormat settings, Endianness              : Big\nCodec ID                                 : A_AC3\nDuration                                 : 1h 33mn\nBit rate mode                            : Constant\nBit rate                                 : 640 Kbps\nChannel(s)                               : 6 channels\nChannel positions                        : Front: L C R, Side: L R, LFE\nSampling rate                            : 48.0 KHz\nBit depth                                : 16 bits\nCompression mode                         : Lossy\nStream size                              : 429 MiB (9%)\nDefault                                  : Yes\nForced                                   : No\nDURATION                                 : 01:33:39.078000000\nNUMBER_OF_FRAMES                         : 134723\nNUMBER_OF_BYTES                          : 4582482357\n_STATISTICS_WRITING_APP                  : mkvmerge v7.8.0 ('River Man') 64bit built on Mar 27 2015 16:31:37\n_STATISTICS_WRITING_DATE_UTC             : 2015-05-29 13:16:51\n_STATISTICS_TAGS                         : BPS DURATION NUMBER_OF_FRAMES NUMBER_OF_BYTES\n &lt;a href=&quot;\nhttp://anotherpage.org/image/Dc&quot; rel=&quot;nofollow&quot; target=&quot;_NEW&quot;&gt;\nhttp://anotherpage.org/image/Dc&lt;/a&gt;\n &lt;a href=&quot;\nhttp://anotherpage.org/image/Dk&quot; rel=&quot;nofollow&quot; target=&quot;_NEW&quot;&gt;\nhttp://anotherpage.org/image/Dk&lt;/a&gt;\n &lt;a href=&quot;\nhttp://anotherpage.org/image/DN&quot; rel=&quot;nofollow&quot; target=&quot;_NEW&quot;&gt;\nhttp://anotherpage.org/image/DN&lt;/a&gt;\n &lt;a href=&quot;\nhttp://anotherpage.org/image/DP&quot; rel=&quot;nofollow&quot; target=&quot;_NEW&quot;&gt;\nhttp://anotherpage.org/image/DP&lt;/a&gt;\n &lt;a href=&quot;\nhttp://anotherpage.org/image/DZ&quot; rel=&quot;nofollow&quot; target=&quot;_NEW&quot;&gt;\nhttp://anotherpage.org/image/DZ&lt;/a&gt;","torrent":{"xt":"urn:btih:05e866f586d3a08f3793814cc2a3835b2d1b0443","amp;dn":"Poltergeist.2015.SCREENER.1080p.x264-POLTERGEIST+%5Bjunoliv69%5D","amp;tr":["udp%3A%2F%2Ftracker.openbittorrent.com%3A80","udp%3A%2F%2Fopen.demonii.com%3A1337","udp%3A%2F%2Ftracker.coppersurfer.tk%3A6969","udp%3A%2F%2Fexodus.desync.com%3A6969"],"infoHash":"05e866f586d3a08f3793814cc2a3835b2d1b0443","infoHashBuffer":{"type":"Buffer","data":[5,232,102,245,134,211,160,143,55,147,129,76,194,163,131,91,45,27,4,67]},"announce":[],"urlList":[]}}